<svg width="83" height="76" viewBox="0 0 83 76" fill="none" xmlns="http://www.w3.org/2000/svg">
<path fill-rule="evenodd" clip-rule="evenodd" d="M24.3907 0.228C28.8161 0.0414545 30.2271 0 41.5 0C52.7729 0 54.1839 0.044909 58.6055 0.228C63.0272 0.411091 66.0454 1.05709 68.6863 1.99327C71.4517 2.95018 73.9605 4.446 76.0355 6.38055C78.1483 8.27709 79.7781 10.5709 80.8194 13.1065C81.8455 15.5247 82.5473 18.2884 82.751 22.3302C82.9547 26.3893 83 27.6813 83 38C83 48.3222 82.951 49.6142 82.751 53.6664C82.551 57.7082 81.8455 60.4718 80.8194 62.89C79.7781 65.426 78.1456 67.7236 76.0355 69.6229C73.9605 71.5575 71.4517 73.0498 68.6863 74.0033C66.0454 74.9429 63.0272 75.5855 58.6131 75.772C54.1839 75.9585 52.7729 76 41.5 76C30.2271 76 28.8161 75.9551 24.3907 75.772C19.9766 75.5889 16.9584 74.9429 14.3175 74.0033C11.548 73.0497 9.03878 71.5549 6.96445 69.6229C4.85316 67.7252 3.21932 65.4287 2.17686 62.8935C1.15445 60.4753 0.452727 57.7116 0.249 53.6698C0.0452727 49.6107 0 48.3187 0 38C0 27.6778 0.0490454 26.3858 0.249 22.3371C0.448954 18.2884 1.15445 15.5247 2.17686 13.1065C3.22086 10.5712 4.85595 8.27472 6.96823 6.37709C9.03961 4.44428 11.5463 2.94826 14.3137 1.99327C16.9546 1.05709 19.9728 0.414545 24.3869 0.228H24.3907ZM58.2698 7.068C53.8934 6.88491 52.5805 6.84691 41.5 6.84691C30.4195 6.84691 29.1066 6.88491 24.7302 7.068C20.6821 7.23727 18.4864 7.85564 17.0225 8.37727C15.0871 9.06818 13.7025 9.88691 12.25 11.2169C10.8732 12.4435 9.81354 13.9366 9.14886 15.5869C8.57918 16.9273 7.90386 18.9378 7.719 22.6445C7.51905 26.6518 7.47755 27.854 7.47755 38C7.47755 48.146 7.51905 49.3482 7.719 53.3555C7.90386 57.0622 8.57918 59.0727 9.14886 60.4131C9.81286 62.0609 10.873 63.5567 12.25 64.7831C13.5894 66.044 15.223 67.0147 17.0225 67.6227C18.4864 68.1444 20.6821 68.7627 24.7302 68.932C29.1066 69.1151 30.4157 69.1531 41.5 69.1531C52.5843 69.1531 53.8934 69.1151 58.2698 68.932C62.3179 68.7627 64.5136 68.1444 65.9775 67.6227C67.9129 66.9318 69.2975 66.1131 70.75 64.7831C72.127 63.5567 73.1871 62.0609 73.8511 60.4131C74.4208 59.0727 75.0961 57.0622 75.281 53.3555C75.481 49.3482 75.5225 48.146 75.5225 38C75.5225 27.854 75.481 26.6518 75.281 22.6445C75.0961 18.9378 74.4208 16.9273 73.8511 15.5869C73.0966 13.8147 72.2025 12.5469 70.75 11.2169C69.4104 9.95625 67.7797 8.986 65.9775 8.37727C64.5136 7.85564 62.3179 7.23727 58.2698 7.068V7.068ZM36.1993 49.7144C39.1596 50.8427 42.4559 50.995 45.5252 50.1452C48.5945 49.2954 51.2464 47.4963 53.028 45.055C54.8095 42.6138 55.6102 39.6819 55.2933 36.7602C54.9763 33.8384 53.5614 31.1081 51.2902 29.0355C49.8424 27.7106 48.0918 26.6961 46.1643 26.0651C44.2369 25.434 42.1807 25.2022 40.1437 25.3861C38.1067 25.5701 36.1395 26.1653 34.3839 27.129C32.6283 28.0927 31.1278 29.4008 29.9906 30.9591C28.8533 32.5175 28.1075 34.2874 27.8069 36.1413C27.5064 37.9953 27.6584 39.8872 28.2522 41.6809C28.846 43.4746 29.8667 45.1254 31.2409 46.5145C32.6151 47.9036 34.3085 48.9965 36.1993 49.7144ZM26.4166 24.1887C28.3974 22.375 30.7489 20.9363 33.3369 19.9547C35.925 18.9731 38.6988 18.4679 41.5 18.4679C44.3012 18.4679 47.075 18.9731 49.6631 19.9547C52.2511 20.9363 54.6026 22.375 56.5834 24.1887C58.5641 26.0024 60.1354 28.1557 61.2074 30.5254C62.2794 32.8951 62.8311 35.435 62.8311 38C62.8311 40.565 62.2794 43.1049 61.2074 45.4746C60.1354 47.8443 58.5641 49.9976 56.5834 51.8113C52.583 55.4743 47.1574 57.5321 41.5 57.5321C35.8426 57.5321 30.417 55.4743 26.4166 51.8113C22.4163 48.1483 20.1689 43.1802 20.1689 38C20.1689 32.8198 22.4163 27.8517 26.4166 24.1887V24.1887ZM67.562 21.3767C68.0529 20.9527 68.4458 20.4429 68.7176 19.8774C68.9894 19.3118 69.1345 18.7021 69.1443 18.0843C69.1542 17.4665 69.0285 16.8532 68.7749 16.2806C68.5212 15.7081 68.1446 15.1879 67.6675 14.751C67.1903 14.3141 66.6223 13.9693 65.997 13.7371C65.3718 13.5048 64.7019 13.3897 64.0272 13.3987C63.3525 13.4077 62.6866 13.5406 62.069 13.7895C61.4514 14.0384 60.8946 14.3982 60.4315 14.8476C59.531 15.7217 59.038 16.8828 59.0571 18.0843C59.0763 19.2858 59.606 20.4332 60.534 21.2829C61.462 22.1326 62.715 22.6177 64.0272 22.6352C65.3394 22.6527 66.6074 22.2013 67.562 21.3767V21.3767Z" fill="white"/>
</svg>
