<svg width="135" height="70" viewBox="0 0 135 70" fill="none" xmlns="http://www.w3.org/2000/svg">
<path d="M94 8.30328C90.5432 9.70642 86.8297 10.6545 82.9258 11.083C86.9539 8.87513 89.9675 5.40016 91.4043 1.30651C87.6198 3.36568 83.4779 4.81512 79.1585 5.59179C76.2539 2.75086 72.4067 0.867844 68.2141 0.235093C64.0215 -0.397658 59.7181 0.255258 55.9721 2.09247C52.2261 3.92969 49.247 6.84841 47.4974 10.3955C45.7478 13.9426 45.3256 17.9196 46.2962 21.709C38.6279 21.3563 31.1262 19.5305 24.278 16.3501C17.4298 13.1698 11.3881 8.70587 6.54514 3.24816C4.88919 5.86484 3.93702 8.89867 3.93702 12.1297C3.93517 15.0384 4.71711 17.9025 6.21345 20.4679C7.70979 23.0334 9.87427 25.2208 12.5148 26.8362C9.45248 26.7469 6.45768 25.9889 3.77971 24.6253V24.8528C3.7794 28.9323 5.31987 32.8863 8.13975 36.0438C10.9596 39.2014 14.8852 41.368 19.2504 42.176C16.4096 42.8803 13.4312 42.984 10.5401 42.4794C11.7717 45.9895 14.1708 49.0591 17.4014 51.2582C20.6321 53.4574 24.5326 54.676 28.5569 54.7436C21.7254 59.6562 13.2885 62.3209 4.60354 62.3092C3.06508 62.3096 1.52793 62.2273 0 62.0627C8.81576 67.255 19.078 70.0107 29.5587 70C65.0374 70 84.4328 43.0823 84.4328 19.737C84.4328 18.9786 84.4121 18.2125 84.3748 17.4541C88.1474 14.9548 91.4039 11.86 93.9917 8.31466L94 8.30328Z" fill="white"/>
</svg>
